<svg xmlns="http://www.w3.org/2000/svg" width="768" height="96" viewBox="0 0 768 96">
  <defs>
    <radialGradient id="bossOrb" cx="50%" cy="50%" r="58%">
      <stop offset="0%" stop-color="#fef3c7" />
      <stop offset="35%" stop-color="#fb7185" />
      <stop offset="100%" stop-color="#7f1d1d" />
    </radialGradient>
  </defs>

  <g transform="translate(0,0)">
    <circle cx="48" cy="48" r="28" fill="url(#bossOrb)" />
    <circle cx="48" cy="48" r="35" fill="none" stroke="#fecdd3" stroke-width="4" stroke-opacity="0.7" />
  </g>
  <g transform="translate(96,0)">
    <circle cx="48" cy="48" r="28" fill="url(#bossOrb)" />
    <circle cx="48" cy="48" r="37" fill="none" stroke="#fecdd3" stroke-width="3" stroke-opacity="0.66" />
  </g>
  <g transform="translate(192,0)">
    <circle cx="48" cy="48" r="28" fill="url(#bossOrb)" />
    <circle cx="48" cy="48" r="39" fill="none" stroke="#fecdd3" stroke-width="3" stroke-opacity="0.6" />
  </g>
  <g transform="translate(288,0)">
    <circle cx="48" cy="48" r="28" fill="url(#bossOrb)" />
    <circle cx="48" cy="48" r="37" fill="none" stroke="#fecdd3" stroke-width="3" stroke-opacity="0.66" />
  </g>
  <g transform="translate(384,0)">
    <circle cx="48" cy="48" r="28" fill="url(#bossOrb)" />
    <circle cx="48" cy="48" r="35" fill="none" stroke="#fecdd3" stroke-width="4" stroke-opacity="0.7" />
  </g>
  <g transform="translate(480,0)">
    <circle cx="48" cy="48" r="28" fill="url(#bossOrb)" />
    <circle cx="48" cy="48" r="33" fill="none" stroke="#fecdd3" stroke-width="4" stroke-opacity="0.75" />
  </g>
  <g transform="translate(576,0)">
    <circle cx="48" cy="48" r="28" fill="url(#bossOrb)" />
    <circle cx="48" cy="48" r="31" fill="none" stroke="#fecdd3" stroke-width="4" stroke-opacity="0.78" />
  </g>
  <g transform="translate(672,0)">
    <circle cx="48" cy="48" r="28" fill="url(#bossOrb)" />
    <circle cx="48" cy="48" r="33" fill="none" stroke="#fecdd3" stroke-width="4" stroke-opacity="0.75" />
  </g>
</svg>
