<svg xmlns="http://www.w3.org/2000/svg" width="768" height="96" viewBox="0 0 768 96">
  <defs>
    <radialGradient id="hunterCore" cx="50%" cy="50%" r="60%">
      <stop offset="0%" stop-color="#f8fafc" />
      <stop offset="45%" stop-color="#38bdf8" />
      <stop offset="100%" stop-color="#0f172a" />
    </radialGradient>
    <linearGradient id="hunterWing" x1="0%" y1="0%" x2="100%" y2="100%">
      <stop offset="0%" stop-color="#a5f3fc" stop-opacity="0.9" />
      <stop offset="100%" stop-color="#0ea5e9" stop-opacity="0.5" />
    </linearGradient>
  </defs>

  <g transform="translate(0,0)">
    <ellipse cx="20" cy="44" rx="13" ry="8" fill="url(#hunterWing)" />
    <ellipse cx="76" cy="44" rx="13" ry="8" fill="url(#hunterWing)" />
    <circle cx="48" cy="48" r="16" fill="url(#hunterCore)" stroke="#7dd3fc" stroke-width="2" />
    <circle cx="48" cy="48" r="5" fill="#e0f2fe" />
  </g>

  <g transform="translate(96,0)">
    <ellipse cx="20" cy="39" rx="15" ry="8" fill="url(#hunterWing)" />
    <ellipse cx="76" cy="39" rx="15" ry="8" fill="url(#hunterWing)" />
    <circle cx="48" cy="47" r="16" fill="url(#hunterCore)" stroke="#7dd3fc" stroke-width="2" />
    <circle cx="48" cy="47" r="5" fill="#e0f2fe" />
  </g>

  <g transform="translate(192,0)">
    <ellipse cx="20" cy="36" rx="16" ry="8" fill="url(#hunterWing)" />
    <ellipse cx="76" cy="36" rx="16" ry="8" fill="url(#hunterWing)" />
    <circle cx="48" cy="46" r="16" fill="url(#hunterCore)" stroke="#7dd3fc" stroke-width="2" />
    <circle cx="48" cy="46" r="5" fill="#e0f2fe" />
  </g>

  <g transform="translate(288,0)">
    <ellipse cx="20" cy="39" rx="15" ry="8" fill="url(#hunterWing)" />
    <ellipse cx="76" cy="39" rx="15" ry="8" fill="url(#hunterWing)" />
    <circle cx="48" cy="47" r="16" fill="url(#hunterCore)" stroke="#7dd3fc" stroke-width="2" />
    <circle cx="48" cy="47" r="5" fill="#e0f2fe" />
  </g>

  <g transform="translate(384,0)">
    <ellipse cx="20" cy="44" rx="13" ry="8" fill="url(#hunterWing)" />
    <ellipse cx="76" cy="44" rx="13" ry="8" fill="url(#hunterWing)" />
    <circle cx="48" cy="48" r="16" fill="url(#hunterCore)" stroke="#7dd3fc" stroke-width="2" />
    <circle cx="48" cy="48" r="5" fill="#e0f2fe" />
  </g>

  <g transform="translate(480,0)">
    <ellipse cx="20" cy="49" rx="12" ry="8" fill="url(#hunterWing)" />
    <ellipse cx="76" cy="49" rx="12" ry="8" fill="url(#hunterWing)" />
    <circle cx="48" cy="49" r="16" fill="url(#hunterCore)" stroke="#7dd3fc" stroke-width="2" />
    <circle cx="48" cy="49" r="5" fill="#e0f2fe" />
  </g>

  <g transform="translate(576,0)">
    <ellipse cx="20" cy="52" rx="11" ry="8" fill="url(#hunterWing)" />
    <ellipse cx="76" cy="52" rx="11" ry="8" fill="url(#hunterWing)" />
    <circle cx="48" cy="50" r="16" fill="url(#hunterCore)" stroke="#7dd3fc" stroke-width="2" />
    <circle cx="48" cy="50" r="5" fill="#e0f2fe" />
  </g>

  <g transform="translate(672,0)">
    <ellipse cx="20" cy="49" rx="12" ry="8" fill="url(#hunterWing)" />
    <ellipse cx="76" cy="49" rx="12" ry="8" fill="url(#hunterWing)" />
    <circle cx="48" cy="49" r="16" fill="url(#hunterCore)" stroke="#7dd3fc" stroke-width="2" />
    <circle cx="48" cy="49" r="5" fill="#e0f2fe" />
  </g>
</svg>
